<?xml version="1.0" encoding="UTF-8" standalone="no"?>
<!DOCTYPE svg PUBLIC "-//W3C//DTD SVG 1.1//EN"
 "http://www.w3.org/Graphics/SVG/1.1/DTD/svg11.dtd">
<!-- Generated by graphviz version 2.47.0 (20210316.0004)
 -->
<!-- Title: dependencies Pages: 1 -->
<svg width="2366pt" height="363pt"
 viewBox="0.00 0.00 2366.00 363.00" xmlns="http://www.w3.org/2000/svg" xmlns:xlink="http://www.w3.org/1999/xlink">
<g id="graph0" class="graph" transform="scale(1 1) rotate(0) translate(4 359)">
<title>dependencies</title>
<polygon fill="white" stroke="transparent" points="-4,4 -4,-359 2362,-359 2362,4 -4,4"/>
<text text-anchor="start" x="1158.01" y="-42.4" font-family="Times-12" font-weight="bold" font-size="14.00">Legend</text>
<polygon fill="#ffffb3" stroke="transparent" points="945,-10 945,-30 965,-30 965,-10 945,-10"/>
<text text-anchor="start" x="968.63" y="-15.4" font-family="Times-12" font-size="14.00"> &#160;Declarations</text>
<polygon fill="#8dd3c7" stroke="transparent" points="1058,-10 1058,-30 1078,-30 1078,-10 1058,-10"/>
<text text-anchor="start" x="1081.73" y="-15.4" font-family="Times-12" font-size="14.00"> &#160;Module</text>
<polygon fill="#80b1d3" stroke="transparent" points="1144,-10 1144,-30 1164,-30 1164,-10 1144,-10"/>
<text text-anchor="start" x="1167.78" y="-15.4" font-family="Times-12" font-size="14.00"> &#160;Bootstrap</text>
<polygon fill="#fdb462" stroke="transparent" points="1241,-10 1241,-30 1261,-30 1261,-10 1241,-10"/>
<text text-anchor="start" x="1264.67" y="-15.4" font-family="Times-12" font-size="14.00"> &#160;Providers</text>
<polygon fill="#fb8072" stroke="transparent" points="1337,-10 1337,-30 1357,-30 1357,-10 1337,-10"/>
<text text-anchor="start" x="1360.73" y="-15.4" font-family="Times-12" font-size="14.00"> &#160;Exports</text>
<g id="clust1" class="cluster">
<title>cluster_AppModule</title>
<polygon fill="none" stroke="black" stroke-dasharray="1,5" points="560,-146 560,-347 1934,-347 1934,-146 560,-146"/>
</g>
<g id="clust3" class="cluster">
<title>cluster_AppModule_imports</title>
<polygon fill="none" stroke="black" points="706,-154 706,-282 1926,-282 1926,-154 706,-154"/>
</g>
<g id="clust6" class="cluster">
<title>cluster_AppModule_providers</title>
<polygon fill="none" stroke="black" points="568,-230 568,-282 698,-282 698,-230 568,-230"/>
</g>
<g id="clust7" class="cluster">
<title>cluster_AuthModule</title>
<polygon fill="none" stroke="black" stroke-dasharray="1,5" points="8,-146 8,-214 552,-214 552,-146 8,-146"/>
</g>
<g id="clust10" class="cluster">
<title>cluster_AuthModule_exports</title>
<polygon fill="none" stroke="black" points="438,-154 438,-206 544,-206 544,-154 438,-154"/>
</g>
<g id="clust12" class="cluster">
<title>cluster_AuthModule_providers</title>
<polygon fill="none" stroke="black" points="16,-154 16,-206 430,-206 430,-154 16,-154"/>
</g>
<g id="clust13" class="cluster">
<title>cluster_CompaniesModule</title>
<polygon fill="none" stroke="black" stroke-dasharray="1,5" points="495,-70 495,-138 693,-138 693,-70 495,-70"/>
</g>
<g id="clust18" class="cluster">
<title>cluster_CompaniesModule_providers</title>
<polygon fill="none" stroke="black" points="503,-78 503,-130 685,-130 685,-78 503,-78"/>
</g>
<g id="clust19" class="cluster">
<title>cluster_DatabasesModule</title>
<polygon fill="none" stroke="black" stroke-dasharray="1,5" points="701,-70 701,-138 1033,-138 1033,-70 701,-70"/>
</g>
<g id="clust24" class="cluster">
<title>cluster_DatabasesModule_providers</title>
<polygon fill="none" stroke="black" points="709,-78 709,-130 1025,-130 1025,-78 709,-78"/>
</g>
<g id="clust25" class="cluster">
<title>cluster_FilesModule</title>
<polygon fill="none" stroke="black" stroke-dasharray="1,5" points="1041,-70 1041,-138 1191,-138 1191,-70 1041,-70"/>
</g>
<g id="clust30" class="cluster">
<title>cluster_FilesModule_providers</title>
<polygon fill="none" stroke="black" points="1049,-78 1049,-130 1183,-130 1183,-78 1049,-78"/>
</g>
<g id="clust31" class="cluster">
<title>cluster_JobsModule</title>
<polygon fill="none" stroke="black" stroke-dasharray="1,5" points="1199,-70 1199,-138 1345,-138 1345,-70 1199,-70"/>
</g>
<g id="clust36" class="cluster">
<title>cluster_JobsModule_providers</title>
<polygon fill="none" stroke="black" points="1207,-78 1207,-130 1337,-130 1337,-78 1207,-78"/>
</g>
<g id="clust37" class="cluster">
<title>cluster_MailModule</title>
<polygon fill="none" stroke="black" stroke-dasharray="1,5" points="1353,-70 1353,-138 1501,-138 1501,-70 1353,-70"/>
</g>
<g id="clust42" class="cluster">
<title>cluster_MailModule_providers</title>
<polygon fill="none" stroke="black" points="1361,-78 1361,-130 1493,-130 1493,-78 1361,-78"/>
</g>
<g id="clust43" class="cluster">
<title>cluster_PermissionsModule</title>
<polygon fill="none" stroke="black" stroke-dasharray="1,5" points="1509,-70 1509,-138 1715,-138 1715,-70 1509,-70"/>
</g>
<g id="clust48" class="cluster">
<title>cluster_PermissionsModule_providers</title>
<polygon fill="none" stroke="black" points="1517,-78 1517,-130 1707,-130 1707,-78 1517,-78"/>
</g>
<g id="clust49" class="cluster">
<title>cluster_ResumesModule</title>
<polygon fill="none" stroke="black" stroke-dasharray="1,5" points="1723,-70 1723,-138 1905,-138 1905,-70 1723,-70"/>
</g>
<g id="clust54" class="cluster">
<title>cluster_ResumesModule_providers</title>
<polygon fill="none" stroke="black" points="1731,-78 1731,-130 1897,-130 1897,-78 1731,-78"/>
</g>
<g id="clust55" class="cluster">
<title>cluster_RolesModule</title>
<polygon fill="none" stroke="black" stroke-dasharray="1,5" points="1942,-222 1942,-290 2216,-290 2216,-222 1942,-222"/>
</g>
<g id="clust58" class="cluster">
<title>cluster_RolesModule_exports</title>
<polygon fill="none" stroke="black" points="2098,-230 2098,-282 2208,-282 2208,-230 2098,-230"/>
</g>
<g id="clust60" class="cluster">
<title>cluster_RolesModule_providers</title>
<polygon fill="none" stroke="black" points="1950,-230 1950,-282 2090,-282 2090,-230 1950,-230"/>
</g>
<g id="clust61" class="cluster">
<title>cluster_SubscribersModule</title>
<polygon fill="none" stroke="black" stroke-dasharray="1,5" points="1913,-70 1913,-138 2115,-138 2115,-70 1913,-70"/>
</g>
<g id="clust66" class="cluster">
<title>cluster_SubscribersModule_providers</title>
<polygon fill="none" stroke="black" points="1921,-78 1921,-130 2107,-130 2107,-78 1921,-78"/>
</g>
<g id="clust67" class="cluster">
<title>cluster_UsersModule</title>
<polygon fill="none" stroke="black" stroke-dasharray="1,5" points="2224,-222 2224,-290 2350,-290 2350,-222 2224,-222"/>
</g>
<g id="clust70" class="cluster">
<title>cluster_UsersModule_exports</title>
<polygon fill="none" stroke="black" points="2232,-230 2232,-282 2342,-282 2342,-230 2232,-230"/>
</g>
<!-- AuthModule -->
<g id="node1" class="node">
<title>AuthModule</title>
<polygon fill="#8dd3c7" stroke="black" points="801.55,-274 798.55,-278 777.55,-278 774.55,-274 714.45,-274 714.45,-238 801.55,-238 801.55,-274"/>
<text text-anchor="middle" x="758" y="-251.8" font-family="Times,serif" font-size="14.00">AuthModule</text>
</g>
<!-- AppModule -->
<g id="node12" class="node">
<title>AppModule</title>
<polygon fill="#8dd3c7" stroke="black" points="1235.66,-339 1232.66,-343 1211.66,-343 1208.66,-339 1152.34,-339 1152.34,-303 1235.66,-303 1235.66,-339"/>
<text text-anchor="middle" x="1194" y="-316.8" font-family="Times,serif" font-size="14.00">AppModule</text>
</g>
<!-- AuthModule&#45;&gt;AppModule -->
<g id="edge1" class="edge">
<title>AuthModule&#45;&gt;AppModule</title>
<path fill="none" stroke="black" d="M801.75,-267C906.54,-267 1163.24,-267 1163.24,-267 1163.24,-267 1163.24,-292.72 1163.24,-292.72"/>
<polygon fill="black" stroke="black" points="1159.74,-292.72 1163.24,-302.72 1166.74,-292.72 1159.74,-292.72"/>
</g>
<!-- AuthService  -->
<g id="node14" class="node">
<title>AuthService </title>
<polygon fill="#fb8072" stroke="black" points="535.98,-198 446.02,-198 446.02,-162 535.98,-162 535.98,-198"/>
<text text-anchor="middle" x="491" y="-175.8" font-family="Times,serif" font-size="14.00">AuthService </text>
</g>
<!-- AuthModule&#45;&gt;AuthService  -->
<g id="edge15" class="edge">
<title>AuthModule&#45;&gt;AuthService </title>
<path fill="none" stroke="black" stroke-dasharray="5,2" d="M714.18,-256C706.9,-256 701.67,-256 701.67,-256 701.67,-256 701.67,-186 701.67,-186 701.67,-186 545.94,-186 545.94,-186"/>
<polygon fill="black" stroke="black" points="545.94,-182.5 535.94,-186 545.94,-189.5 545.94,-182.5"/>
</g>
<!-- CompaniesModule -->
<g id="node2" class="node">
<title>CompaniesModule</title>
<polygon fill="#8dd3c7" stroke="black" points="836.04,-198 833.04,-202 812.04,-202 809.04,-198 713.96,-198 713.96,-162 836.04,-162 836.04,-198"/>
<text text-anchor="middle" x="775" y="-175.8" font-family="Times,serif" font-size="14.00">CompaniesModule</text>
</g>
<!-- CompaniesModule&#45;&gt;AppModule -->
<g id="edge2" class="edge">
<title>CompaniesModule&#45;&gt;AppModule</title>
<path fill="none" stroke="black" d="M819.02,-198.07C819.02,-236.94 819.02,-325 819.02,-325 819.02,-325 1142.08,-325 1142.08,-325"/>
<polygon fill="black" stroke="black" points="1142.08,-328.5 1152.08,-325 1142.08,-321.5 1142.08,-328.5"/>
</g>
<!-- DatabasesModule -->
<g id="node3" class="node">
<title>DatabasesModule</title>
<polygon fill="#8dd3c7" stroke="black" points="1080.29,-198 1077.29,-202 1056.29,-202 1053.29,-198 963.71,-198 963.71,-162 1080.29,-162 1080.29,-198"/>
<text text-anchor="middle" x="1022" y="-175.8" font-family="Times,serif" font-size="14.00">DatabasesModule</text>
</g>
<!-- DatabasesModule&#45;&gt;AppModule -->
<g id="edge3" class="edge">
<title>DatabasesModule&#45;&gt;AppModule</title>
<path fill="none" stroke="black" d="M1022,-198.21C1022,-234.21 1022,-311 1022,-311 1022,-311 1141.92,-311 1141.92,-311"/>
<polygon fill="black" stroke="black" points="1141.92,-314.5 1151.92,-311 1141.92,-307.5 1141.92,-314.5"/>
</g>
<!-- FilesModule -->
<g id="node4" class="node">
<title>FilesModule</title>
<polygon fill="#8dd3c7" stroke="black" points="1185.27,-198 1182.27,-202 1161.27,-202 1158.27,-198 1098.73,-198 1098.73,-162 1185.27,-162 1185.27,-198"/>
<text text-anchor="middle" x="1142" y="-175.8" font-family="Times,serif" font-size="14.00">FilesModule</text>
</g>
<!-- FilesModule&#45;&gt;AppModule -->
<g id="edge4" class="edge">
<title>FilesModule&#45;&gt;AppModule</title>
<path fill="none" stroke="black" d="M1174.31,-198.14C1174.31,-198.14 1174.31,-292.93 1174.31,-292.93"/>
<polygon fill="black" stroke="black" points="1170.81,-292.92 1174.31,-302.93 1177.81,-292.93 1170.81,-292.92"/>
</g>
<!-- JobsModule -->
<g id="node5" class="node">
<title>JobsModule</title>
<polygon fill="#8dd3c7" stroke="black" points="1288.44,-198 1285.44,-202 1264.44,-202 1261.44,-198 1203.56,-198 1203.56,-162 1288.44,-162 1288.44,-198"/>
<text text-anchor="middle" x="1246" y="-175.8" font-family="Times,serif" font-size="14.00">JobsModule</text>
</g>
<!-- JobsModule&#45;&gt;AppModule -->
<g id="edge5" class="edge">
<title>JobsModule&#45;&gt;AppModule</title>
<path fill="none" stroke="black" d="M1219.8,-198.14C1219.8,-198.14 1219.8,-292.93 1219.8,-292.93"/>
<polygon fill="black" stroke="black" points="1216.3,-292.92 1219.8,-302.93 1223.3,-292.93 1216.3,-292.92"/>
</g>
<!-- MailModule -->
<g id="node6" class="node">
<title>MailModule</title>
<polygon fill="#8dd3c7" stroke="black" points="1391.99,-198 1388.99,-202 1367.99,-202 1364.99,-198 1306.01,-198 1306.01,-162 1391.99,-162 1391.99,-198"/>
<text text-anchor="middle" x="1349" y="-175.8" font-family="Times,serif" font-size="14.00">MailModule</text>
</g>
<!-- MailModule&#45;&gt;AppModule -->
<g id="edge6" class="edge">
<title>MailModule&#45;&gt;AppModule</title>
<path fill="none" stroke="black" d="M1349,-198.21C1349,-233.77 1349,-309 1349,-309 1349,-309 1245.95,-309 1245.95,-309"/>
<polygon fill="black" stroke="black" points="1245.95,-305.5 1235.95,-309 1245.95,-312.5 1245.95,-305.5"/>
</g>
<!-- PermissionsModule -->
<g id="node7" class="node">
<title>PermissionsModule</title>
<polygon fill="#8dd3c7" stroke="black" points="1537.71,-198 1534.71,-202 1513.71,-202 1510.71,-198 1410.29,-198 1410.29,-162 1537.71,-162 1537.71,-198"/>
<text text-anchor="middle" x="1474" y="-175.8" font-family="Times,serif" font-size="14.00">PermissionsModule</text>
</g>
<!-- PermissionsModule&#45;&gt;AppModule -->
<g id="edge7" class="edge">
<title>PermissionsModule&#45;&gt;AppModule</title>
<path fill="none" stroke="black" d="M1474,-198.21C1474,-235.06 1474,-315 1474,-315 1474,-315 1245.92,-315 1245.92,-315"/>
<polygon fill="black" stroke="black" points="1245.92,-311.5 1235.92,-315 1245.92,-318.5 1245.92,-311.5"/>
</g>
<!-- ResumesModule -->
<g id="node8" class="node">
<title>ResumesModule</title>
<polygon fill="#8dd3c7" stroke="black" points="1666.1,-198 1663.1,-202 1642.1,-202 1639.1,-198 1555.9,-198 1555.9,-162 1666.1,-162 1666.1,-198"/>
<text text-anchor="middle" x="1611" y="-175.8" font-family="Times,serif" font-size="14.00">ResumesModule</text>
</g>
<!-- ResumesModule&#45;&gt;AppModule -->
<g id="edge8" class="edge">
<title>ResumesModule&#45;&gt;AppModule</title>
<path fill="none" stroke="black" d="M1611,-198.14C1611,-236.23 1611,-321 1611,-321 1611,-321 1245.89,-321 1245.89,-321"/>
<polygon fill="black" stroke="black" points="1245.89,-317.5 1235.89,-321 1245.89,-324.5 1245.89,-317.5"/>
</g>
<!-- RolesModule -->
<g id="node9" class="node">
<title>RolesModule</title>
<polygon fill="#8dd3c7" stroke="black" points="1917.94,-198 1914.94,-202 1893.94,-202 1890.94,-198 1826.06,-198 1826.06,-162 1917.94,-162 1917.94,-198"/>
<text text-anchor="middle" x="1872" y="-175.8" font-family="Times,serif" font-size="14.00">RolesModule</text>
</g>
<!-- RolesModule&#45;&gt;AuthModule -->
<g id="edge13" class="edge">
<title>RolesModule&#45;&gt;AuthModule</title>
<path fill="none" stroke="black" d="M1849.14,-198.15C1849.14,-221.76 1849.14,-260 1849.14,-260 1849.14,-260 811.79,-260 811.79,-260"/>
<polygon fill="black" stroke="black" points="811.79,-256.5 801.79,-260 811.79,-263.5 811.79,-256.5"/>
</g>
<!-- RolesModule&#45;&gt;AppModule -->
<g id="edge9" class="edge">
<title>RolesModule&#45;&gt;AppModule</title>
<path fill="none" stroke="black" d="M1872,-198.27C1872,-239.06 1872,-334 1872,-334 1872,-334 1245.9,-334 1245.9,-334"/>
<polygon fill="black" stroke="black" points="1245.9,-330.5 1235.9,-334 1245.9,-337.5 1245.9,-330.5"/>
</g>
<!-- RolesService  -->
<g id="node26" class="node">
<title>RolesService </title>
<polygon fill="#fb8072" stroke="black" points="2199.86,-274 2106.14,-274 2106.14,-238 2199.86,-238 2199.86,-274"/>
<text text-anchor="middle" x="2153" y="-251.8" font-family="Times,serif" font-size="14.00">RolesService </text>
</g>
<!-- RolesModule&#45;&gt;RolesService  -->
<g id="edge27" class="edge">
<title>RolesModule&#45;&gt;RolesService </title>
<path fill="none" stroke="black" stroke-dasharray="5,2" d="M1917.77,-180C1997.4,-180 2153,-180 2153,-180 2153,-180 2153,-227.99 2153,-227.99"/>
<polygon fill="black" stroke="black" points="2149.5,-227.99 2153,-237.99 2156.5,-227.99 2149.5,-227.99"/>
</g>
<!-- SubscribersModule -->
<g id="node10" class="node">
<title>SubscribersModule</title>
<polygon fill="#8dd3c7" stroke="black" points="1808.36,-198 1805.36,-202 1784.36,-202 1781.36,-198 1683.64,-198 1683.64,-162 1808.36,-162 1808.36,-198"/>
<text text-anchor="middle" x="1746" y="-175.8" font-family="Times,serif" font-size="14.00">SubscribersModule</text>
</g>
<!-- SubscribersModule&#45;&gt;AppModule -->
<g id="edge10" class="edge">
<title>SubscribersModule&#45;&gt;AppModule</title>
<path fill="none" stroke="black" d="M1746,-198.03C1746,-237.28 1746,-327 1746,-327 1746,-327 1245.94,-327 1245.94,-327"/>
<polygon fill="black" stroke="black" points="1245.94,-323.5 1235.94,-327 1245.94,-330.5 1245.94,-323.5"/>
</g>
<!-- UsersModule -->
<g id="node11" class="node">
<title>UsersModule</title>
<polygon fill="#8dd3c7" stroke="black" points="945.92,-198 942.92,-202 921.92,-202 918.92,-198 854.08,-198 854.08,-162 945.92,-162 945.92,-198"/>
<text text-anchor="middle" x="900" y="-175.8" font-family="Times,serif" font-size="14.00">UsersModule</text>
</g>
<!-- UsersModule&#45;&gt;AuthModule -->
<g id="edge14" class="edge">
<title>UsersModule&#45;&gt;AuthModule</title>
<path fill="none" stroke="black" d="M900,-198.04C900,-219.66 900,-253 900,-253 900,-253 811.76,-253 811.76,-253"/>
<polygon fill="black" stroke="black" points="811.76,-249.5 801.76,-253 811.76,-256.5 811.76,-249.5"/>
</g>
<!-- UsersModule&#45;&gt;AppModule -->
<g id="edge11" class="edge">
<title>UsersModule&#45;&gt;AppModule</title>
<path fill="none" stroke="black" d="M922.86,-198.04C922.86,-235.45 922.86,-318 922.86,-318 922.86,-318 1142.23,-318 1142.23,-318"/>
<polygon fill="black" stroke="black" points="1142.23,-321.5 1152.23,-318 1142.23,-314.5 1142.23,-321.5"/>
</g>
<!-- UsersService  -->
<g id="node29" class="node">
<title>UsersService </title>
<polygon fill="#fb8072" stroke="black" points="2333.85,-274 2240.15,-274 2240.15,-238 2333.85,-238 2333.85,-274"/>
<text text-anchor="middle" x="2287" y="-251.8" font-family="Times,serif" font-size="14.00">UsersService </text>
</g>
<!-- UsersModule&#45;&gt;UsersService  -->
<g id="edge30" class="edge">
<title>UsersModule&#45;&gt;UsersService </title>
<path fill="none" stroke="black" stroke-dasharray="5,2" d="M877.14,-198.06C877.14,-202.49 877.14,-206 877.14,-206 877.14,-206 2287,-206 2287,-206 2287,-206 2287,-227.95 2287,-227.95"/>
<polygon fill="black" stroke="black" points="2283.5,-227.95 2287,-237.95 2290.5,-227.95 2283.5,-227.95"/>
</g>
<!-- AppService -->
<g id="node13" class="node">
<title>AppService</title>
<ellipse fill="#fdb462" stroke="black" cx="633" cy="-256" rx="56.74" ry="18"/>
<text text-anchor="middle" x="633" y="-251.8" font-family="Times,serif" font-size="14.00">AppService</text>
</g>
<!-- AppService&#45;&gt;AppModule -->
<g id="edge12" class="edge">
<title>AppService&#45;&gt;AppModule</title>
<path fill="none" stroke="black" d="M633,-274.01C633,-296.49 633,-332 633,-332 633,-332 1142.29,-332 1142.29,-332"/>
<polygon fill="black" stroke="black" points="1142.29,-335.5 1152.29,-332 1142.29,-328.5 1142.29,-335.5"/>
</g>
<!-- AuthService -->
<g id="node15" class="node">
<title>AuthService</title>
<ellipse fill="#fdb462" stroke="black" cx="363" cy="-180" rx="59.11" ry="18"/>
<text text-anchor="middle" x="363" y="-175.8" font-family="Times,serif" font-size="14.00">AuthService</text>
</g>
<!-- AuthService&#45;&gt;AuthModule -->
<g id="edge16" class="edge">
<title>AuthService&#45;&gt;AuthModule</title>
<path fill="none" stroke="black" d="M363,-198.19C363,-206.28 363,-214 363,-214 363,-214 779.89,-214 779.89,-214 779.89,-214 779.89,-227.94 779.89,-227.94"/>
<polygon fill="black" stroke="black" points="776.39,-227.94 779.89,-237.94 783.39,-227.94 776.39,-227.94"/>
</g>
<!-- JwtStrategy -->
<g id="node16" class="node">
<title>JwtStrategy</title>
<ellipse fill="#fdb462" stroke="black" cx="229" cy="-180" rx="56.76" ry="18"/>
<text text-anchor="middle" x="229" y="-175.8" font-family="Times,serif" font-size="14.00">JwtStrategy</text>
</g>
<!-- JwtStrategy&#45;&gt;AuthModule -->
<g id="edge17" class="edge">
<title>JwtStrategy&#45;&gt;AuthModule</title>
<path fill="none" stroke="black" d="M229,-198.06C229,-209.44 229,-222 229,-222 229,-222 758,-222 758,-222 758,-222 758,-227.81 758,-227.81"/>
<polygon fill="black" stroke="black" points="754.5,-227.81 758,-237.81 761.5,-227.81 754.5,-227.81"/>
</g>
<!-- LocalStrategy -->
<g id="node17" class="node">
<title>LocalStrategy</title>
<ellipse fill="#fdb462" stroke="black" cx="89" cy="-180" rx="65.41" ry="18"/>
<text text-anchor="middle" x="89" y="-175.8" font-family="Times,serif" font-size="14.00">LocalStrategy</text>
</g>
<!-- LocalStrategy&#45;&gt;AuthModule -->
<g id="edge18" class="edge">
<title>LocalStrategy&#45;&gt;AuthModule</title>
<path fill="none" stroke="black" d="M89,-198.05C89,-212.37 89,-230 89,-230 89,-230 736.11,-230 736.11,-230 736.11,-230 736.11,-230.79 736.11,-230.79"/>
<polygon fill="black" stroke="black" points="732.61,-227.94 736.11,-237.94 739.61,-227.94 732.61,-227.94"/>
</g>
<!-- CompaniesService -->
<g id="node18" class="node">
<title>CompaniesService</title>
<ellipse fill="#fdb462" stroke="black" cx="594" cy="-104" rx="83.38" ry="18"/>
<text text-anchor="middle" x="594" y="-99.8" font-family="Times,serif" font-size="14.00">CompaniesService</text>
</g>
<!-- CompaniesService&#45;&gt;CompaniesModule -->
<g id="edge19" class="edge">
<title>CompaniesService&#45;&gt;CompaniesModule</title>
<path fill="none" stroke="black" d="M626.91,-120.59C626.91,-141.29 626.91,-174 626.91,-174 626.91,-174 703.91,-174 703.91,-174"/>
<polygon fill="black" stroke="black" points="703.91,-177.5 713.91,-174 703.91,-170.5 703.91,-177.5"/>
</g>
<!-- DatabasesService -->
<g id="node19" class="node">
<title>DatabasesService</title>
<ellipse fill="#fdb462" stroke="black" cx="938" cy="-104" rx="79.27" ry="18"/>
<text text-anchor="middle" x="938" y="-99.8" font-family="Times,serif" font-size="14.00">DatabasesService</text>
</g>
<!-- DatabasesService&#45;&gt;DatabasesModule -->
<g id="edge20" class="edge">
<title>DatabasesService&#45;&gt;DatabasesModule</title>
<path fill="none" stroke="black" d="M999.37,-115.54C999.37,-115.54 999.37,-151.83 999.37,-151.83"/>
<polygon fill="black" stroke="black" points="995.87,-151.83 999.37,-161.83 1002.87,-151.83 995.87,-151.83"/>
</g>
<!-- UsersService -->
<g id="node20" class="node">
<title>UsersService</title>
<ellipse fill="#fdb462" stroke="black" cx="779" cy="-104" rx="61.95" ry="18"/>
<text text-anchor="middle" x="779" y="-99.8" font-family="Times,serif" font-size="14.00">UsersService</text>
</g>
<!-- UsersService&#45;&gt;DatabasesModule -->
<g id="edge21" class="edge">
<title>UsersService&#45;&gt;DatabasesModule</title>
<path fill="none" stroke="black" d="M776.65,-122.21C776.65,-127.55 776.65,-132 776.65,-132 776.65,-132 981.61,-132 981.61,-132 981.61,-132 981.61,-151.85 981.61,-151.85"/>
<polygon fill="black" stroke="black" points="978.11,-151.85 981.61,-161.85 985.11,-151.85 978.11,-151.85"/>
</g>
<!-- UsersService&#45;&gt;UsersModule -->
<g id="edge31" class="edge">
<title>UsersService&#45;&gt;UsersModule</title>
<path fill="none" stroke="black" d="M841.05,-104C845.12,-104 847.63,-104 847.63,-104 847.63,-104 847.63,-180 847.63,-180 847.63,-180 848.27,-180 848.27,-180"/>
<polygon fill="black" stroke="black" points="844.05,-183.5 854.05,-180 844.05,-176.5 844.05,-183.5"/>
</g>
<!-- FilesService -->
<g id="node21" class="node">
<title>FilesService</title>
<ellipse fill="#fdb462" stroke="black" cx="1116" cy="-104" rx="58.54" ry="18"/>
<text text-anchor="middle" x="1116" y="-99.8" font-family="Times,serif" font-size="14.00">FilesService</text>
</g>
<!-- FilesService&#45;&gt;FilesModule -->
<g id="edge22" class="edge">
<title>FilesService&#45;&gt;FilesModule</title>
<path fill="none" stroke="black" d="M1136.69,-120.87C1136.69,-120.87 1136.69,-151.85 1136.69,-151.85"/>
<polygon fill="black" stroke="black" points="1133.19,-151.85 1136.69,-161.85 1140.19,-151.85 1133.19,-151.85"/>
</g>
<!-- JobsService -->
<g id="node22" class="node">
<title>JobsService</title>
<ellipse fill="#fdb462" stroke="black" cx="1272" cy="-104" rx="57.32" ry="18"/>
<text text-anchor="middle" x="1272" y="-99.8" font-family="Times,serif" font-size="14.00">JobsService</text>
</g>
<!-- JobsService&#45;&gt;JobsModule -->
<g id="edge23" class="edge">
<title>JobsService&#45;&gt;JobsModule</title>
<path fill="none" stroke="black" d="M1251.53,-120.87C1251.53,-120.87 1251.53,-151.85 1251.53,-151.85"/>
<polygon fill="black" stroke="black" points="1248.03,-151.85 1251.53,-161.85 1255.03,-151.85 1248.03,-151.85"/>
</g>
<!-- MailService -->
<g id="node23" class="node">
<title>MailService</title>
<ellipse fill="#fdb462" stroke="black" cx="1427" cy="-104" rx="58.46" ry="18"/>
<text text-anchor="middle" x="1427" y="-99.8" font-family="Times,serif" font-size="14.00">MailService</text>
</g>
<!-- MailService&#45;&gt;MailModule -->
<g id="edge24" class="edge">
<title>MailService&#45;&gt;MailModule</title>
<path fill="none" stroke="black" d="M1380.38,-114.89C1380.38,-114.89 1380.38,-151.79 1380.38,-151.79"/>
<polygon fill="black" stroke="black" points="1376.88,-151.79 1380.38,-161.79 1383.88,-151.79 1376.88,-151.79"/>
</g>
<!-- PermissionsService -->
<g id="node24" class="node">
<title>PermissionsService</title>
<ellipse fill="#fdb462" stroke="black" cx="1612" cy="-104" rx="86.83" ry="18"/>
<text text-anchor="middle" x="1612" y="-99.8" font-family="Times,serif" font-size="14.00">PermissionsService</text>
</g>
<!-- PermissionsService&#45;&gt;PermissionsModule -->
<g id="edge25" class="edge">
<title>PermissionsService&#45;&gt;PermissionsModule</title>
<path fill="none" stroke="black" d="M1531.47,-110.74C1531.47,-110.74 1531.47,-151.74 1531.47,-151.74"/>
<polygon fill="black" stroke="black" points="1527.97,-151.74 1531.47,-161.74 1534.97,-151.74 1527.97,-151.74"/>
</g>
<!-- ResumesService -->
<g id="node25" class="node">
<title>ResumesService</title>
<ellipse fill="#fdb462" stroke="black" cx="1814" cy="-104" rx="74.71" ry="18"/>
<text text-anchor="middle" x="1814" y="-99.8" font-family="Times,serif" font-size="14.00">ResumesService</text>
</g>
<!-- ResumesService&#45;&gt;ResumesModule -->
<g id="edge26" class="edge">
<title>ResumesService&#45;&gt;ResumesModule</title>
<path fill="none" stroke="black" d="M1762.24,-117.29C1762.24,-128.25 1762.24,-142 1762.24,-142 1762.24,-142 1611,-142 1611,-142 1611,-142 1611,-151.89 1611,-151.89"/>
<polygon fill="black" stroke="black" points="1607.5,-151.89 1611,-161.89 1614.5,-151.89 1607.5,-151.89"/>
</g>
<!-- RolesService -->
<g id="node27" class="node">
<title>RolesService</title>
<ellipse fill="#fdb462" stroke="black" cx="2020" cy="-256" rx="61.97" ry="18"/>
<text text-anchor="middle" x="2020" y="-251.8" font-family="Times,serif" font-size="14.00">RolesService</text>
</g>
<!-- RolesService&#45;&gt;RolesModule -->
<g id="edge28" class="edge">
<title>RolesService&#45;&gt;RolesModule</title>
<path fill="none" stroke="black" d="M1968.38,-246C1933.91,-246 1894.86,-246 1894.86,-246 1894.86,-246 1894.86,-208.03 1894.86,-208.03"/>
<polygon fill="black" stroke="black" points="1898.36,-208.03 1894.86,-198.03 1891.36,-208.03 1898.36,-208.03"/>
</g>
<!-- SubscribersService -->
<g id="node28" class="node">
<title>SubscribersService</title>
<ellipse fill="#fdb462" stroke="black" cx="2014" cy="-104" rx="85.09" ry="18"/>
<text text-anchor="middle" x="2014" y="-99.8" font-family="Times,serif" font-size="14.00">SubscribersService</text>
</g>
<!-- SubscribersService&#45;&gt;SubscribersModule -->
<g id="edge29" class="edge">
<title>SubscribersService&#45;&gt;SubscribersModule</title>
<path fill="none" stroke="black" d="M1943.48,-114.18C1943.48,-128.27 1943.48,-152 1943.48,-152 1943.48,-152 1785.34,-152 1785.34,-152 1785.34,-152 1785.34,-152.98 1785.34,-152.98"/>
<polygon fill="black" stroke="black" points="1781.84,-151.79 1785.34,-161.79 1788.84,-151.79 1781.84,-151.79"/>
</g>
</g>
</svg>
